# xmcd
#
# Track frame offsets:
# 150
# 12647
# 27110
# 42908
# 59819
# 76495
# 89132
# 101708
# 119802
# 132930
# 147303
# 161533
#
# Disc length: 2381 seconds
#
# Revision: 0
# Processed by: cddbd v1.5.1PL2 Copyright (c) Steve Scherf et al.
# Submitted via: Audion 3.0.2 (http://www.panic.com/audion/)
#
DISCID=b2094b0c
DTITLE=Delta Boy - When I Got Religion
DYEAR=1900
DGENRE=
TTITLE0=Preachin Blues
TTITLE1=T.V. Mama
TTITLE2=Pigmeat
TTITLE3=Kind Hearted Woman
TTITLE4=John the Conquero
TTITLE5=Blues I Know
TTITLE6=Can't Be Satisfied
TTITLE7=M and O Blues
TTITLE8=21 Lights
TTITLE9=Blue Day
TTITLE10=I've Been Lookin For A Woman
TTITLE11=Terraplane
EXTD=
EXTT0=
EXTT1=
EXTT2=
EXTT3=
EXTT4=
EXTT5=
EXTT6=
EXTT7=
EXTT8=
EXTT9=
EXTT10=
EXTT11=
PLAYORDER=
